<?xml version="1.0" encoding="UTF-8" standalone="no"?>
<svg xmlns:inkscape="http://www.inkscape.org/namespaces/inkscape" xmlns:sodipodi="http://sodipodi.sourceforge.net/DTD/sodipodi-0.dtd" xmlns:xlink="http://www.w3.org/1999/xlink" xmlns="http://www.w3.org/2000/svg" xmlns:svg="http://www.w3.org/2000/svg" width="498.87897" height="84.377136" viewBox="0 0 498.87897 84.377136" version="1.1" id="svg1" inkscape:version="1.3 (0e150ed6c4, 2023-07-21)" sodipodi:docname="EternalLogo_6.2.svg" xml:space="preserve" inkscape:export-filename="EternalIcon4_BoxExample.svg" inkscape:export-xdpi="96" inkscape:export-ydpi="96">
  <defs id="defs1">
    <linearGradient id="swatch119" inkscape:swatch="solid">
      <stop style="stop-color:#000000;stop-opacity:1;" offset="0" id="stop119"></stop>
    </linearGradient>
    <linearGradient id="swatch111" inkscape:swatch="solid">
      <stop style="stop-color:#282828;stop-opacity:0.65490196;" offset="0" id="stop111"></stop>
    </linearGradient>
    <linearGradient id="swatch110" inkscape:swatch="solid">
      <stop style="stop-color:#1a1a1a;stop-opacity:1;" offset="0" id="stop110"></stop>
    </linearGradient>
    <linearGradient id="swatch50" inkscape:swatch="solid">
      <stop style="stop-color:#ffffff;stop-opacity:1;" offset="0" id="stop51"></stop>
    </linearGradient>
    <linearGradient id="swatch43" inkscape:swatch="solid">
      <stop style="stop-color:#d8b46e;stop-opacity:1;" offset="0" id="stop44"></stop>
    </linearGradient>
  </defs>
  <g inkscape:groupmode="layer" id="layer10" inkscape:label="Eternity 1" style="display:inline" transform="translate(-36.93494,-209.91525)">
    <path d="m 253.73117,-93.502544 q -12.17167,8.493894 -12.17167,21.716348 0,10.245213 5.51666,15.411602 5.34152,5.078824 13.13488,5.078824 7.88094,0 12.95976,-5.341521 5.16639,-5.429087 5.16639,-13.485152 0,-6.217181 -2.71454,-10.332779 -2.71455,-4.115598 -8.93173,-7.092839 -3.94046,-1.838885 -12.95975,-5.954483 z m -5.25396,-2.451846 q -16.11213,-8.49389 -16.11213,-21.97905 0,-10.24521 9.63225,-16.54996 -4.02803,5.34153 -4.02803,12.8722 0,6.83014 4.1156,12.78462 4.02803,5.86692 20.14016,12.346795 9.80738,3.940466 13.48515,6.304746 3.94047,2.626978 6.74258,7.530669 2.80211,5.166389 2.80211,11.821399 0,10.945741 -7.35554,17.775882 -7.4431,6.830142 -17.86345,6.830142 -10.85817,0 -19.17693,-7.618235 -8.40633,-7.618235 -8.40633,-18.301277 0,-13.485152 16.02456,-23.817931 z m 20.31529,-10.59548 q 9.89495,-6.30474 9.89495,-16.11213 0,-7.09284 -3.8529,-11.73383 -3.8529,-4.64099 -10.50791,-4.64099 -6.65501,0 -10.59547,4.64099 -4.02804,4.55343 -4.02804,11.12087 0,4.81613 3.32751,8.40633 3.3275,3.5902 15.76186,8.31876 z m 4.9037,1.92645 q 21.36608,9.544689 21.36608,26.182214 0,8.493895 -5.51665,15.499168 1.31349,-4.115598 1.31349,-8.844158 0,-9.807383 -4.81613,-16.549959 -4.90369,-6.742576 -19.87746,-12.609495 -16.1997,-6.30474 -19.43964,-11.64626 -3.23994,-5.34153 -3.23994,-10.50792 0,-8.05606 6.04205,-14.44837 6.04205,-6.30475 15.23647,-6.30475 8.31876,0 15.32404,5.69179 6.91771,5.60421 6.91771,14.44837 0,11.5587 -13.31002,19.08937 z" id="text121-6" style="font-size:179.335px;font-family:'Colonna MT';-inkscape-font-specification:'Colonna MT, Normal';letter-spacing:3.03719px;fill:#666666;stroke:#008080;stroke-width:0.459629;stroke-miterlimit:5;stroke-opacity:0.654902;paint-order:fill markers stroke" inkscape:label="Whole 8" transform="matrix(-0.0368197,0.98701654,-1.0118144,-0.03591732,0,0)" aria-label="8"></path>
    <path style="fill:#008080;fill-opacity:1;stroke:#000700;stroke-width:1.911;stroke-miterlimit:5.1;stroke-dasharray:none;stroke-opacity:1;paint-order:fill markers stroke" d="m 109.82229,233.66502 c -6.34513,-0.0532 -12.32651,3.17855 -16.50441,7.82433 -1.73813,1.9004 -3.32221,3.98411 -4.61108,6.19765 -1.908,3.29147 -0.10403,11.58399 1.38202,9.10689 0.80336,-0.51402 1.87283,-2.87246 2.46632,-3.66548 2.70118,-4.74158 6.12663,-9.49675 11.25744,-11.77947 6.49722,-3.03692 14.42092,-2.86084 20.73859,0.54934 0.30246,0.22265 2.47915,1.86713 2.30211,1.02716 -3.14178,-4.36303 -9.09103,-8.66863 -14.52746,-9.14715 -0.83134,-0.0873 -1.6677,-0.12407 -2.50353,-0.11325 z" id="path123-2" sodipodi:nodetypes="sccccccccss" inkscape:export-filename=".\text1-8-9.svg" inkscape:export-xdpi="96" inkscape:export-ydpi="96"></path>
    <path style="font-size:12.0929px;font-family:'Eras Demi ITC';-inkscape-font-specification:'Eras Demi ITC';letter-spacing:0.647832px;word-spacing:0.0615441px;display:inline;fill:#008080;fill-opacity:1;stroke:#000000;stroke-width:2.5541" d="m 126.84659,264.22358 c -0.68285,3.63162 -1.27257,7.32531 -1.76925,11.08112 -3.53851,0.62056 -6.7821,1.05534 -9.73088,1.30364 -2.94878,0.24838 -5.47846,0.37218 -7.58914,0.37218 -4.6559,0 -9.11009,-0.6521 -13.36251,-1.9555 -4.22135,-1.30364 -8.03922,-3.35226 -11.45354,-6.14586 -3.38332,-2.82459 -5.83542,-6.2389 -7.35637,-10.24302 -1.52095,-4.00412 -2.28139,-8.38065 -2.28139,-13.12967 0,-5.15257 0.91569,-9.91713 2.747,-14.29374 1.83131,-4.3766 4.4542,-8.07029 7.86851,-11.08112 3.44538,-3.01076 7.51155,-5.24562 12.19852,-6.70452 4.68696,-1.48988 9.57563,-2.23478 14.66615,-2.23478 4.64935,0 9.69674,0.49124 15.14208,1.47269 0.44393,0.0804 0.89062,0.16322 1.33991,0.24996 0.093,2.76253 0.18609,4.71803 0.27913,5.86649 l 0.32565,4.98179 c -3.50751,-0.93115 -6.42522,-1.56748 -8.75312,-1.9089 -2.32799,-0.34142 -4.54732,-0.51253 -6.658,-0.51253 -3.32127,0 -6.51827,0.51174 -9.59116,1.53641 -3.0419,0.99328 -5.74238,2.59182 -8.10135,4.79562 -2.32791,2.20379 -4.12823,4.87321 -5.40088,8.00823 -1.24159,3.10396 -1.86238,6.34756 -1.86238,9.73089 0,4.0351 0.77589,7.65119 2.32799,10.84827 1.55202,3.19708 4.03519,5.78891 7.4495,7.77539 3.44538,1.98649 7.69772,2.97977 12.75717,2.97977 4.68697,0 10.28962,-0.93115 16.80788,-2.79352 z" id="text1-8-9-7-3-2-3-5" inkscape:label="C_Top" sodipodi:nodetypes="ccssccsssccsscccsscccsscscc" inkscape:export-filename=".\text1-8-9.svg" inkscape:export-xdpi="96" inkscape:export-ydpi="96"></path>
  </g>
  <g inkscape:groupmode="layer" id="layer11" inkscape:label="Icon" style="display:inline" transform="translate(-36.93494,-209.91525)">
    <text xml:space="preserve" style="font-size:95.3533px;letter-spacing:5.10819px;word-spacing:0.485279px;display:inline;fill:#ffffff;stroke:#000000;stroke-width:2.55411" x="138.57066" y="275.82324" id="text1" inkscape:label="Eternal" inkscape:export-filename="EternalLogo5.svg" inkscape:export-xdpi="96" inkscape:export-ydpi="96">
      <tspan sodipodi:role="line" id="tspan1" x="138.57066" y="275.82324" style="font-style:normal;font-variant:normal;font-weight:normal;font-stretch:normal;font-size:95.3533px;font-family:'Eras Demi ITC';-inkscape-font-specification:'Eras Demi ITC';letter-spacing:5.10819px;word-spacing:0.485279px;display:inline;fill:#ffffff;stroke:#000000;stroke-width:2.55411">TERNAL</tspan>
    </text>
  </g>
</svg>
